<svg width="41" height="27" viewBox="0 0 41 27" fill="none" xmlns="http://www.w3.org/2000/svg">
<path d="M24.9162 2.89523C25.0767 2.46747 25.3506 2.1025 25.5502 1.69829C25.605 1.58448 25.6637 1.47067 25.7224 1.35686C25.7967 1.35686 25.8633 1.34901 25.8594 1.2509C26.0237 0.933024 26.1685 0.603372 26.3603 0.301192C26.5286 0.0382556 27.1234 -0.0559295 27.46 0.042181C28.1605 0.246251 28.2623 0.925175 27.8983 1.52561C27.4913 2.18884 27.1234 2.86776 26.7477 3.55061C26.736 3.56239 26.7203 3.57808 26.7086 3.58986C26.5012 3.86457 26.372 4.18637 26.1998 4.48462C25.6911 5.35977 25.1901 6.23491 24.6736 7.10221C24.4035 7.55352 24.3957 7.54175 24.9045 7.63593C25.6676 7.77721 26.4307 7.91849 27.1743 8.13433C28.0079 8.37765 28.8062 8.70337 29.4872 9.25671C29.7885 9.50395 30.039 10.0455 29.8864 10.5243C29.679 11.164 29.4089 11.7762 29.1741 12.4041C28.9902 12.8986 28.8493 13.4127 28.6419 13.8993C28.2857 14.747 28.0392 15.6417 27.6831 16.4894C27.4365 17.082 27.2213 17.6981 26.8534 18.2319C26.4816 18.7695 26.1294 19.3189 25.6832 19.8056C25.2997 20.2255 24.8888 20.6179 24.4701 20.9947C23.8087 21.5833 23.0847 22.0935 22.2707 22.4506C22.1376 22.5095 21.9224 22.5134 21.8636 22.6115C21.7893 22.7332 21.8363 22.9333 21.8323 23.0981C21.8323 23.522 21.8636 23.9458 21.8245 24.3657C21.7502 25.1977 21.351 25.5548 20.5565 25.6569C19.7347 25.7628 18.905 25.8256 18.0754 25.8766C16.8426 25.9512 15.6098 25.9551 14.3732 25.959C13.9192 25.959 13.4613 25.9904 13.0073 25.9512C12.299 25.8923 11.5867 25.9002 10.8823 25.8178C10.487 25.7746 10.0918 25.7353 9.69259 25.7118C9.13687 25.6726 8.62419 25.547 8.29154 25.0486C8.18979 24.8955 8.12326 24.7268 8.12326 24.5306C8.13109 23.9576 8.11935 23.3846 8.12326 22.8117C8.12326 22.6939 8.10761 22.6154 7.98237 22.5723C7.16836 22.2897 6.47176 21.8227 5.80646 21.2772C5.16072 20.7474 4.57761 20.1627 4.0258 19.5387C3.6775 19.1423 3.43486 18.6832 3.14135 18.2554C2.85174 17.8316 2.61693 17.3881 2.46822 16.8976C2.45648 16.8819 2.44082 16.8622 2.42908 16.8465C2.32342 16.5326 2.18644 16.2304 2.11992 15.9047C2.13166 15.7987 2.09643 15.7399 1.98294 15.7477C1.73248 15.0256 1.50941 14.2917 1.22372 13.5853C0.906722 12.8005 0.652343 11.9999 0.370569 11.2072C0.276645 10.9481 0.120103 10.7127 0.0418329 10.4419C-0.0560052 10.1044 0.0222654 9.79828 0.229682 9.52357C0.331434 9.5275 0.339261 9.45686 0.339261 9.3823C0.397964 9.28026 0.484062 9.20177 0.577986 9.13113C0.597554 9.11544 0.617122 9.10366 0.636689 9.08797C1.18458 8.61704 1.8538 8.40512 2.51909 8.18143C3.28615 7.92634 4.0845 7.79683 4.87504 7.63593C5.52468 7.50643 6.18607 7.45541 6.84354 7.37299C7.74756 7.25919 8.64768 7.16108 9.55953 7.12576C10.0957 7.10221 10.6357 7.07082 11.1719 7.02372C11.7472 6.97271 12.3264 7.03157 12.8978 6.97663C13.4496 6.92169 13.9975 6.95701 14.5493 6.92954C15.2654 6.89029 15.9777 7.0198 16.7017 6.98055C16.4199 7.49858 16.1499 8.00875 15.8603 8.515C15.7585 8.69552 15.6294 8.82895 15.3633 8.82111C14.5219 8.80148 13.6766 8.80148 12.8351 8.83288C12.0642 8.86427 11.2932 8.88782 10.5262 8.94276C10.1544 8.97023 9.77868 8.98986 9.4069 9.00948C8.65942 9.05657 7.91976 9.1586 7.1801 9.23709C6.18998 9.33913 5.19595 9.48041 4.21756 9.68055C3.69707 9.78651 3.18439 9.93956 2.66781 10.073C2.61693 10.0769 2.56997 10.0887 2.57388 10.1515C2.57388 10.2025 2.61302 10.2143 2.65215 10.2221C2.64433 10.3556 2.73434 10.3909 2.84392 10.4223C3.54052 10.6381 4.25279 10.7833 4.96505 10.9167C5.22334 10.9638 5.48555 11.0619 5.74384 11.0541C6.1665 11.0384 6.55003 11.2032 6.96095 11.215C7.59102 11.2346 8.21327 11.3563 8.84335 11.4112C9.07816 11.4308 9.31689 11.4387 9.5517 11.4505C9.93522 11.4701 10.3227 11.4976 10.7023 11.5211C12.346 11.6349 13.9936 11.6035 15.6372 11.6153C15.8055 11.6153 15.9112 11.5721 15.9855 11.4191C16.373 10.6067 16.8739 9.86108 17.3005 9.07227C17.6605 8.40512 18.0754 7.76151 18.4119 7.07866C18.4863 7.07866 18.5528 7.07081 18.5489 6.9727C18.6859 6.57634 18.905 6.21922 19.1164 5.86994C19.4921 5.24204 19.8247 4.59058 20.2082 3.9666C20.5409 3.42111 20.8422 2.85991 21.1436 2.29872C21.2179 2.29872 21.2844 2.29087 21.2805 2.19276C21.4958 1.765 21.7071 1.33724 21.9615 0.929099C22.1415 0.638692 22.302 0.352209 22.5642 0.124593C22.8225 -0.099099 23.66 -0.0206087 23.8752 0.352211C23.9887 0.548432 24.0787 0.721105 24.0787 0.964419C24.0787 1.18026 23.9613 1.30977 23.8713 1.46674C23.6913 1.7807 23.523 2.09858 23.3469 2.41253C23.0064 3.00904 22.6503 3.60163 22.3254 4.20991C22.0906 4.64945 21.8167 5.06936 21.5819 5.51282C21.2101 6.20352 20.8148 6.87852 20.4196 7.55352C20.1026 8.09509 19.8482 8.6759 19.4921 9.19C19.1359 9.7041 18.9089 10.2888 18.5606 10.8029C18.4315 10.9952 18.3219 11.2032 18.2006 11.3994C18.1341 11.5054 18.1341 11.5721 18.2789 11.5603C18.7798 11.5211 19.2807 11.5093 19.7817 11.5093C19.946 11.5093 20.0165 11.3563 20.0908 11.2307C20.4587 10.5949 20.8227 9.95919 21.1866 9.31951C21.2571 9.31951 21.2884 9.28419 21.2884 9.21747C21.5388 8.73869 21.7932 8.25991 22.0437 7.77721C22.118 7.77721 22.1846 7.76936 22.1806 7.67125C22.3215 7.25919 22.5603 6.89422 22.7794 6.52532C23.1473 5.90526 23.4643 5.25381 23.8556 4.64945C24.2039 4.1118 24.4544 3.52314 24.8105 2.99334C24.881 2.99727 24.9162 2.96195 24.9162 2.89523ZM27.5617 10.23C27.1195 10.0063 26.7086 9.92779 26.3055 9.8336C25.3858 9.60991 24.4427 9.47648 23.5073 9.32735C23.4408 9.31558 23.3978 9.3352 23.3586 9.41369C23.0808 9.97881 22.7011 10.4811 22.4546 11.0619C22.4311 11.1208 22.3489 11.1758 22.3959 11.2346C22.4507 11.3013 22.5407 11.2621 22.6229 11.2503C23.0299 11.1875 23.433 11.1051 23.84 11.0737C24.2352 11.0463 24.6188 10.9521 25.0062 10.8853C25.6324 10.7794 26.2507 10.6146 26.873 10.4615C27.0882 10.4066 27.2956 10.3202 27.5617 10.23ZM2.52301 10.2221C2.51909 10.179 2.51127 10.1319 2.46039 10.1397C2.42908 10.1436 2.38212 10.1633 2.37821 10.1829C2.37038 10.2457 2.44474 10.23 2.47605 10.2614C2.51518 10.3006 2.51518 10.2496 2.52301 10.2221Z" fill="#ADAFBB"/>
<path d="M12.1426 16.2392C12.26 16.2274 12.2952 16.2902 12.2796 16.3962C12.17 16.4001 12.1778 16.302 12.1426 16.2392Z" fill="#FFFAFA"/>
<path d="M12.8196 10.7097C12.7805 10.7018 12.7413 10.6901 12.7413 10.639C12.7413 10.5723 12.7883 10.5645 12.8353 10.5605C12.8274 10.6116 12.8235 10.6626 12.8196 10.7097Z" fill="#FFFAFA"/>
<path d="M36.0189 1.74219C36.0228 1.8403 35.9563 1.84815 35.882 1.84815C35.8898 1.76573 35.9485 1.74611 36.0189 1.74219Z" fill="#FFFAFA"/>
<path d="M31.448 2.68799C31.4519 2.7861 31.3854 2.79395 31.311 2.79395C31.3228 2.71153 31.3776 2.69191 31.448 2.68799Z" fill="#FFFAFA"/>
<path d="M28.7202 7.46826C28.7241 7.56637 28.6537 7.57422 28.5833 7.57422C28.5911 7.49181 28.6498 7.47219 28.7202 7.46826Z" fill="#FFFAFA"/>
<path d="M32.3441 8.1626C32.348 8.26071 32.2815 8.27248 32.2072 8.26856C32.215 8.19007 32.2698 8.16652 32.3441 8.1626Z" fill="#FFFAFA"/>
<path d="M10.4989 9.86963C10.4989 9.94419 10.491 10.0148 10.3893 10.0109C10.3932 9.93634 10.4284 9.88925 10.4989 9.86963Z" fill="#FFFAFA"/>
<path d="M35.0758 3.38701C35.0758 3.45765 35.0406 3.48905 34.974 3.48905C34.9701 3.41841 35.0054 3.38309 35.0758 3.38701Z" fill="#FFFAFA"/>
<path d="M31.448 9.70898C31.448 9.77962 31.4128 9.81102 31.3462 9.81102C31.3423 9.74038 31.3775 9.70898 31.448 9.70898Z" fill="#FFFAFA"/>
<path d="M36.8643 4.0774C36.876 4.0656 36.8917 4.04988 36.9035 4.03809C36.9113 4.07347 36.8996 4.08526 36.8643 4.0774Z" fill="#FFFAFA"/>
<path d="M10.7963 9.57555C10.7767 9.59125 10.7571 9.60302 10.7375 9.61872C10.7454 9.59125 10.7571 9.56378 10.7963 9.57555Z" fill="#FFFAFA"/>
<path d="M12.5926 17.334C12.6044 17.3497 12.62 17.3694 12.6318 17.3851C12.6044 17.3812 12.5808 17.3694 12.5926 17.334Z" fill="#FFFAFA"/>
<path d="M12.6826 10.7136C12.6787 10.7411 12.6748 10.7921 12.6356 10.7529C12.6043 10.7215 12.53 10.7372 12.5378 10.6744C12.5378 10.6587 12.5887 10.6352 12.62 10.6312C12.6709 10.6234 12.6787 10.6705 12.6826 10.7136Z" fill="#FFFAFA"/>
</svg>
