<?xml version="1.0" standalone="no"?>
<svg version="1.1" id="Layer_1" xmlns="http://www.w3.org/2000/svg" xmlns:xlink="http://www.w3.org/1999/xlink" x="0px" y="0px" width="595.275px" height="595.28px" viewBox="0 0 595.275 595.28" enable-background="new 0 0 595.275 595.28" xml:space="preserve">
<path id="color_x5F_2" fill="#2586d5" d="M498.936,335.308C499.119,335.314,499.073,335.337,498.936,335.308L498.936,335.308z
	 M522.371,469.693c-2.45-14.014-4.583-28.081-6.789-42.135s-4.821-27.978-7.67-41.917c-1.096-5.36-2.162-10.759-2.677-16.213
	c-0.49-5.185-0.046-10.607-1.134-15.706c-1.351-6.332-3.789-12.169-4.317-18.437c-2.6,0.647-6.215-0.908-8.292-2.074
	c-3.321-1.864-5.8-4.528-7.652-7.62c-0.12-0.102-0.206-0.234-0.241-0.401c-1.838-3.2-3.024-6.833-3.768-10.515
	c-0.268-1.326,2.636-2.072,2.897-0.776c0.432,2.136,1.018,4.317,1.814,6.413c0.896-2.962,2.274-5.661,4.05-8.454
	c0.271-0.426,0.513-0.852,0.758-1.277c-5.547-0.51-10.43-3.764-14.363-8.237c-0.123,0.029-0.239,0.047-0.339,0.047
	c-10.368-0.033-20.774-1.064-31.139-0.491c-7.145,0.396-12.861,2.966-18.352-0.757c-2.392,11.471-2.22,23.732-2.688,35.337
	c-0.607,15.067-2.119,30.009-3.534,45.022c-2.001,21.229-3.104,42.308-3.912,63.615c-0.374,9.84-0.838,19.695-1.944,29.484
	c-0.929,8.219-0.796,16.346-1.192,24.583c10.511,5.318,22.735,5.146,34.116,3.286c1.372-53.804,9.529-107.152,11.213-160.901
	c-0.545-3.337-0.949-6.687-1.15-10.04c-0.066-1.104,2.842-1.703,2.897-0.776c0.189,3.161,0.554,6.323,1.05,9.477
	c0.076,0.034,0.119,0.079,0.117,0.138c-0.005,0.153-0.013,0.306-0.018,0.459c1.48,9.117,4.032,18.159,6.634,26.9
	c1.427,4.795,2.743,9.638,3.985,14.505c0.363,0.955,0.585,1.539,0.585,1.539l1.393,5.918c0,0,1.667,7.417,1.816,8.11
	c0.017,0.078,0.111,0.648,0.259,1.563c0.931,4.229,1.824,8.462,2.683,12.688c3.305,16.262,4.707,32.785,7.521,49.126
	c1.309,7.6,2.666,15.039,3.505,22.708c0.688,6.27,1.479,12.582,3.933,18.435c5.062,3.596,12.368,3.666,18.281,3.045
	c6.319-0.663,13.193-2.055,18.477-5.813C525.155,490.425,524.066,479.389,522.371,469.693z M512.3,392.079l-1.573-9.906
	l-2.161-13.542c0.679,6.604,1.572,13.138,2.998,19.816C511.821,389.656,512.051,390.869,512.3,392.079z M177.121,206.603
	c-1.463,0.29-3.239,0.387-5.146,0.268C173.708,207.178,175.584,207.213,177.121,206.603z M143.131,225.826
	c1.504,5.917,3.257,11.768,4.783,17.679c4.797-2.527,8.604-6.531,12.816-9.92c0.519-0.418,1.835-0.688,2.281,0
	c3.204,4.946,4.482,10.835,9.179,14.711c3.548-4.552,5.823-9.926,9.266-14.561c0.472-0.635,1.686-0.923,2.333-0.395
	c0.186,0.151,0.353,0.318,0.53,0.476l0.808-1.104l5.263,8.365c0.587,0.752,1.191,1.492,1.844,2.192
	c1.942-5.091,3.742-10.236,5.747-15.303c0.238-0.602,0.942-0.957,1.634-1.02l0.234-0.733l2.212,1.543
	c2.071,0.976,4.102,2.051,6.067,3.216c0.616,0.365,1.39,0.748,2.101,1.202c-0.14-0.272-0.285-0.542-0.394-0.841
	c-1.462-4.017-0.125-7.755,2.124-11.022c-0.041-0.104-0.049-0.229-0.009-0.377c1.597-5.846-1.21-11.796-5.715-15.804
	c-2.352-1.924-5.123-3.329-7.91-4.353c-0.93-0.248-1.868-0.414-2.802-0.483c-2.213-0.162-7.169,0.246-11.115-0.349
	c-0.758,2.818-1.735,6.033-4.05,7.461c-2.599,1.603-5.437,1.911-8.45,1.969c-6.642,0.128-15.067-5.59-16.949-12.28
	c-4.283,4.287-9.986,5.265-15.652,8.29c-1.016,0.542-1.921,1.188-2.761,1.891l-3.096,3.391c-4.215,6.125-4.755,14.887-3.577,22.072
	c4.097-0.929,7.486-4.377,11.219-6.184C141.558,225.333,142.938,225.069,143.131,225.826z M382.294,117.526
	c0.396-0.774,0.847-1.485,1.359-2.123C383.028,116.011,382.55,116.714,382.294,117.526z M462.028,132.3
	c0.52-3.774,1.306-7.977-0.002-11.464c-1.813-4.832-6.05-8.208-10.538-10.511c-9.684-4.97-20.097-4.289-27.718,3.791
	c5.634,1.402,11.331,3.084,16.542,5.618C447.893,123.174,455.085,127.641,462.028,132.3z M416.054,118.056l0.927,0.29
	c2.611,0.203,5.174,0.881,7.498,2.062l3.541,0.503l5.744,2.08l7.7,3.107l6.815,3.425l5.018,2.811l10.166,6.044l-0.095,0.266
	c0.459,0.02,0.839,0.197,0.921,0.592c0.766,3.715,1.009,7.732-0.324,11.367c-0.799,2.178-1.964,4.141-3.044,6.16
	c4.003,4.347,8.497,8.795,14.175,10.504c5.832,1.755,11.999,1.11,17.543-1.381c2.221-0.998,5.5-2.682,5.949-5.42
	c0.474-2.892-1.222-5.643-3.928-6.729c-3.501-1.404-7.737-1.638-10.976-3.586c-17.605-10.593-32.963-25.063-52.674-31.979
	c-0.262-0.092-0.285-0.235-0.164-0.393c-2.76-1.038-5.624-1.938-8.536-2.707c-0.2,0.039-0.406,0.058-0.604,0.058h-0.001
	c-0.539-0.001-1.005-0.15-1.044-0.48c-5.741-1.411-11.616-2.31-17.206-2.736c-3.674-0.044-7.937-0.087-9.272-0.07
	c-0.922,0.012-2.825,0.212-4.854,0.746c-1.456,0.634-2.713,1.634-3.592,3.209c-1.609,2.883-3.117,6.916-1.771,10.195
	c2.055,5.007,7.976,7.201,12.955,9.357c-0.428-3.34,0.288-6.696,2.829-9.929c1.006-1.279,2.188-2.375,3.479-3.317l0.191-0.284
	l0.722-0.344c3.059-1.96,6.675-3.031,10.333-3.175L416.054,118.056z M484.23,147.679c0.824,0.509,1.668,0.927,2.526,1.283
	C485.918,148.54,485.068,148.107,484.23,147.679z M211.139,263.426l-0.003-0.212l-0.897,0.458
	C210.539,263.589,210.836,263.501,211.139,263.426z M210.71,301.284c-0.003-0.015,0-0.029-0.003-0.044
	c-2.734-11.697-1.994-23.67-2.474-35.658c-2.796,1.098-5.427,2.437-8.066,3.949l-1.457,1.04l-6.184,3.645
	c-5.496,3.43-11.158,6.708-17.146,9.176c-6.63,2.732-15.88,5.777-23.693,4.438l-0.504,0.044l-0.345-0.208
	c-2.26-0.489-4.384-1.368-6.268-2.76c-1.556,7.126-2.684,14.505-5.6,21.215c-3.479,8.005-4.239,15.803-4.866,24.403
	c-0.644,8.84-1.361,17.603-0.805,26.47c0.44,7.015-0.754,13.693-2.32,20.472l0.183-0.172c2.943-3.508,6.27-6.59,10.463-8.622
	c0.344-0.167,1.896-0.539,2.007,0.155c0.971,6.04,1.509,12.171,3.497,17.991l0.173,0.057c2.953-4.782,6.519-9.194,11.072-12.542
	c0.297-0.219,2.614-1.237,2.758-0.507c1.065,5.389,2.979,10.736,6.337,15.132c3-4.391,5.417-9.171,8.874-13.242
	c0.488-0.575,2.299-1.286,2.789-0.39c2.365,4.323,4.475,8.778,6.758,13.144l0.363-0.432c2.79-4.455,5.37-9.087,9.469-12.485
	c0.615-0.509,1.725-0.595,2.288,0.023c2.272,2.497,3.498,5.574,4.766,8.64c2.018-5.292,6.229-9.872,9.618-14.19
	c0.021-0.027,0.049-0.049,0.072-0.074c0.434-7.435,0.854-14.871,1.148-22.313c0.37-9.306,1.003-18.84,0.312-28.142
	C213.461,313.247,212.145,307.35,210.71,301.284z M161.368,250.683c1.292,4.894,1.942,10.1,4.051,14.713
	c14.42-4.243,28.677-8.729,43.702-10.368c0.521-3.729,0.872-7.553,0.867-11.365c-0.19-0.003-0.367-0.037-0.505-0.125
	c-1.492-0.957-2.657-2.529-3.497-4.15c-0.836,0.67-1.7,1.303-2.589,1.903c0.133,0.084,0.223,0.203,0.233,0.368
	c0.049,0.753,0.626,1.453,1.083,2.012c0.475,0.582,0.994,1.211,1.614,1.645c1.204,0.842-1.457,2.045-2.29,1.463
	c-0.82-0.574-1.53-1.311-2.135-2.105c-0.385-0.506-0.864-1.13-1.065-1.783c-1.052,0.607-2.126,1.18-3.229,1.707
	c0.007,0.021,0.019,0.039,0.023,0.062c0.373,1.966,1.61,3.407,3.362,4.322c0.621,0.324,0.183,0.951-0.231,1.216
	c-0.556,0.356-1.439,0.572-2.058,0.249c-1.884-0.983-3.345-2.556-3.87-4.62c-0.868,0.354-1.747,0.687-2.635,0.999
	c0.07,0.123,0.115,0.267,0.117,0.44c0.026,2.098,0.534,4.031,2.32,5.29c1.343,0.947-1.211,2.376-2.239,1.652
	c-2.227-1.569-2.931-3.864-3.002-6.468c-1.818,0.545-3.661,1.011-5.514,1.409c0.005,0.046,0.011,0.092,0.004,0.145
	c-0.261,2.085-0.031,4.384,1.641,5.843c0.834,0.729-1.882,1.857-2.686,1.156c-1.87-1.633-2.145-4.243-1.867-6.575
	c-2.593,0.458-5.182,0.787-7.729,1.016c-0.142,2.086,0.107,4.102,1.075,6.017c0.678,1.342-2.09,2.384-2.656,1.264
	c-1.154-2.283-1.52-4.591-1.345-7.082C167.221,251.086,164.24,251.004,161.368,250.683z M209.451,236.227
	c-0.376,0.391-0.758,0.774-1.15,1.146c0.407,0.977,0.93,1.979,1.578,2.883C209.792,238.905,209.655,237.561,209.451,236.227z
	 M433.986,212.561c1.343-7.049,4.282-14.115,4.906-21.281c-1.874,0.306-3.73,0.199-5.493-0.263
	c-10.269,21.605-10.035,46.474-12.827,69.774c-0.847,7.066-1.739,14.129-2.526,21.202c0.001,0.021,0.008,0.04,0.008,0.062
	c-0.036,2.174-0.206,4.647-0.752,6.991c-0.484,4.854-1.717,10.846-1.192,16.035c1.051-1.014,2.204-1.956,2.99-2.754
	c3.2-3.25,6.431-6.469,9.661-9.69c1.27-1.266,2.542-2.53,3.803-3.805c0.466-0.471,1.488-1.885,1.438-1.341
	c0.322-3.545-0.148-7.282-0.332-10.824c-0.661-12.77-2.253-25.434-1.935-38.247C431.95,229.769,432.363,221.08,433.986,212.561z
	 M467.098,272.54c0.287,10.092,3.382,20.611,10.458,28.11c0.317,0.336,0.657,0.684,1.009,1.035
	c3.089,3.081,7.437,6.532,11.831,6.935c0.03-0.061,0.055-0.122,0.084-0.183c1.768-3.688,2.71-7.467,3.242-11.771
	c0.989-8.003,1.531-16.774,4.73-24.348c-0.108-0.048-0.186-0.117-0.218-0.214c-4.028-12.16-4.464-25.063-6.444-37.632
	c-0.292-0.005-0.583-0.013-0.876-0.017c-0.054,0-0.094-0.008-0.143-0.011c-0.713,0.185-1.482,0.137-1.623-0.34
	c-2.791-9.46-1.024-18.855-1.175-28.522c-0.136-8.747-0.801-17.687,1.763-26.174c0.028-0.094,0.089-0.182,0.164-0.265
	c-5.44-0.088-10.869-0.487-16.308-0.6c-2.258,6.419-2.543,13.363-5.29,19.639c0.002,0.025,0.01,0.047,0.01,0.074
	c-0.016,12.865-0.331,25.724-0.516,38.587C467.626,248.681,466.762,260.717,467.098,272.54z"></path>
<path id="color_x5F_1" d="M182.181,151.99c-0.74-1.183,2.052-2.205,2.669-1.218c1.397,2.235,3.117,4.76,3.333,7.457
	c0.238,2.971-2.781,3.831-5.195,3.777c-0.561-0.013-1.175-0.467-0.843-1.068c0.359-0.65,1.216-0.863,1.898-0.848
	C187.361,160.163,182.95,153.22,182.181,151.99z M174.619,166.819c-1.409,0.568-2.128-0.996-2.321-2.16
	c-0.156-0.941-3.069-0.255-2.897,0.776c0.203,1.227,0.784,2.295,1.948,2.828c1.368,0.625,3.08,0.21,4.397-0.321
	c0.319-0.129,1.244-0.661,0.785-1.12C176.077,166.37,175.12,166.617,174.619,166.819z M171.288,153.162
	c0.284-0.61,0.652-1.182,1.251-1.521c0.346-0.195,1.155,0.224,1.471,0.37c0.727,0.336,3.396-0.775,2.344-1.262
	c-2.887-1.334-6.603-0.029-7.944,2.85c-0.26,0.559,1.003,0.479,1.205,0.449C170.175,153.963,171.022,153.731,171.288,153.162z
	 M173.677,146.201c0.654,0.198,1.454-0.006,2.039-0.321c0.29-0.156,0.968-0.739,0.305-0.94c-3.515-1.065-8.224-0.537-10.502,2.67
	c-0.67,0.943,2.196,0.574,2.66-0.079C169.523,145.637,171.597,145.57,173.677,146.201z M185.769,149.463
	c0.56-0.085,1.408-0.317,1.673-0.887c0.284-0.61,0.652-1.182,1.251-1.521c0.346-0.195,1.155,0.224,1.471,0.37
	c0.727,0.336,3.396-0.775,2.344-1.262c-2.887-1.334-6.603-0.029-7.944,2.85C184.304,149.572,185.567,149.493,185.769,149.463z
	 M345.986,197.681c-0.001,0.001-0.002,0.001-0.004,0.002C345.983,197.683,345.984,197.682,345.986,197.681L345.986,197.681z
	 M431.703,165.878c-1.067,1.009-2.201,1.88-3.415,2.655c-2.542-4.527-2.903-9.839-4.157-14.815c-0.166-0.657-3.068,0.1-2.897,0.776
	c1.333,5.291,1.655,10.964,4.667,15.667c0.367,0.573,1.85,0.039,2.286-0.19c2.256-1.183,4.288-2.549,6.143-4.303
	C434.956,165.076,432.211,165.398,431.703,165.878z M434.669,155.087c-0.248-0.619-0.496-1.238-0.743-1.856
	c-0.342-0.856-3.19,0.045-2.897,0.776c0.248,0.619,0.495,1.238,0.743,1.856C432.115,156.72,434.962,155.818,434.669,155.087z
	 M418.969,155.397c-0.342-0.856-3.19,0.045-2.897,0.776c0.248,0.619,0.495,1.238,0.743,1.856c0.343,0.856,3.19-0.045,2.897-0.776
	C419.465,156.635,419.217,156.016,418.969,155.397z M426.652,149.684c0.662-0.039,1.438-0.25,1.933-0.714
	c1.074-1.007,2.583-0.88,3.915-0.542c0.652,0.166,1.447-0.055,2.031-0.348c0.254-0.127,0.993-0.669,0.333-0.836
	c-2.955-0.75-6.622-0.271-8.918,1.883C425.445,149.595,426.38,149.699,426.652,149.684z M436.104,167.645
	c2.654-1.795,5.122-4.529,6.132-7.491c0.087-0.256,0.368-0.469,0.72-0.628c0.656-0.76,2.416-0.976,2.675,0.05
	c0.791,3.117,0.953,6.914-1.411,9.42c-2.419,2.565-6.239,2.017-9.125,0.691c-0.292-0.134-0.463-0.299-0.548-0.474
	c-0.042-0.064-0.064-0.131-0.06-0.203C434.42,168.394,435.284,167.719,436.104,167.645z M438.139,168.295
	c1.693,0.576,3.549,0.716,4.429-1.22c0.533-1.171,0.689-2.426,0.637-3.685C441.833,165.307,440.039,167.004,438.139,168.295z
	 M345.991,197.678c-0.001,0-0.002,0.001-0.003,0.001c-0.002,0,0.001,0-0.001,0.001C345.989,197.68,345.989,197.68,345.991,197.678z
	 M545.114,515.883c0.004,0.125-0.04,0.244-0.118,0.353c0.209,0.248-1.79,1.033-2.264,1.033c-16.942,0-33.885,0-50.827,0
	c-0.794,0.371-1.961,0.45-2.172-0.166c-1.391-4.065-1.104-8.884,1.602-12.318c-0.454-0.272-0.895-0.567-1.323-0.886
	c-0.03-0.017-0.054-0.039-0.08-0.059c-0.119-0.09-0.244-0.17-0.361-0.264c-0.428-0.343-0.459-0.73-0.272-1.07
	c-2.457-6.16-3.186-12.824-3.863-19.384c-0.738-7.156-2.169-14.08-3.344-21.169c-2.71-16.354-4.163-32.882-7.521-49.126
	c-3.071-14.856-6.454-29.759-10.722-44.323c-1.481-5.056-2.962-10.198-4.238-15.394c-2.409,49.804-9.508,99.32-10.731,149.231
	c-0.013,0.516-1.044,0.863-1.873,0.958c-0.09,0.105-0.202,0.208-0.332,0.303c0.584,3.671,1.563,7.274,1.642,11.011
	c0.016,0.748-0.895,1.208-1.707,1.199c-0.319,0.177-0.669,0.298-0.974,0.298c-18,0-36,0-54,0c-0.62,0-0.855-0.179-0.852-0.423
	c-0.066-0.066-0.09-0.15-0.044-0.259c0.79-1.892,1.761-3.601,2.887-5.129c-0.017-0.03-0.029-0.063-0.029-0.101
	c-0.228-50.876-5.875-101.554-6.145-152.43c-22.298,26.541-44.597,53.082-66.895,79.623c-0.208,0.248-0.865,0.457-1.483,0.548
	c-0.672,0.239-1.451,0.329-1.694,0.039c-0.666-0.792-1.332-1.585-1.998-2.377c-21.568-25.672-43.136-51.344-64.704-77.016
	c-0.374,51.51-6.065,102.852-6.135,154.369c0,0.013-0.007,0.025-0.008,0.039c0.035,0.146,0.024,0.308-0.065,0.477
	c-0.357,0.678-1.201,0.86-1.895,0.86c-2.082,0-4.164,0-6.246,0c-0.368,0-0.735-0.205-0.879-0.505c-0.03-0.027-0.05-0.057-0.05-0.093
	c0-0.022,0-0.044,0-0.066c-0.014-0.075-0.017-0.153-0.002-0.234c-0.086-56.66-6.105-113.161-6.167-169.824
	c0-0.368,0.55-0.656,1.17-0.823c-4.573,0-9.146,0-13.72,0c-0.119,3.453-0.256,6.905-0.421,10.355
	c-0.381,7.949-0.896,15.891-1.311,23.838c-0.166,3.184,0.374,5.7-2.268,8.036c-0.079,0.069-0.165,0.132-0.245,0.2
	c0.128,0.094,0.203,0.225,0.187,0.407c-0.57,6.357-2.723,12.318-3.986,18.539c-0.873,4.297-1.109,8.626-1.573,12.975
	c-0.911,8.535-2.123,17.051-2.807,25.608c-0.785,9.818-2.627,19.606-2.979,29.45c-0.316,8.854,0.766,17.962,8.248,23.591
	c0.243,0.065,0.435,0.196,0.539,0.398c3.689,1.769,20.802,8.688,18.38,13.688c-2.494,5.15-15.104,3.612-19.286,3.407
	c-7.813-0.383-16.317-0.899-23.85-3.237c-11.026-3.422-6.493-13.375-2.096-21.063c-0.001-0.019-0.001-0.037-0.001-0.056
	c0-0.006,0-0.012,0-0.018c0.001-0.025-0.004-0.046-0.001-0.072c1.11-9.993,0-20.104-1.615-29.984
	c-1.456-8.908-4.07-17.87-4.765-26.868c-0.628-8.132,0.56-16.854,2.823-24.669c1.404-4.85,4.236-9.793,5.033-14.869
	c-2.321,0.124-4.659,0.172-7.049,0.172c-5.504,0-11.359-0.021-17.192-0.49c-1.788,9.645-6.288,20.448-15.986,24.408
	c-9.016,3.681-17.831,1.013-25.655-4.149c-8.903-5.875-18.004-11.458-27.065-17.083c-4.336-2.692-8.675-5.378-13.019-8.058
	c-2.662-1.642-8.114,3.398-10.112,5.018c-0.164,0.132-0.367,0.222-0.583,0.28c-3.593,3.5-10.243,10.458-15.217,7.956
	c-7.449-3.745,1.853-17.241,4.595-21.364c1.692-2.544,3.073-4.744,4.147-7.616c0.935-2.5,1.897-5.052,3.871-6.927
	c4.865-4.622,10.849,0.585,14.278,4.264c0.036,0.021,0.074,0.039,0.106,0.065c13.67,11.188,36.92,4.64,48.729,17.957
	c0.886-1.517,1.761-3.216,1.912-4.876c-0.795-0.651-1.565-1.345-2.313-2.078c-0.258-0.095-0.429-0.269-0.434-0.539
	c-0.018-0.09-0.006-0.179,0.035-0.268c2.044-8.642,2.69-16.381,2.443-25.251c-0.231-8.292,0.563-16.511,1.116-24.774
	c0.496-7.402,1.194-14.619,4.18-21.49c3.375-7.763,4.667-16.037,6.57-24.227c0.042-0.18,0.15-0.338,0.293-0.479
	c-4.033-4.469-5.004-11.36-6.154-17.02c-1.772-8.725-3.761-17.195-4.063-26.104c-0.352,1.021-0.773,2.018-1.252,3
	c-0.433,0.887-3.338,1.195-2.708-0.097c0.9-1.843,1.542-3.76,1.903-5.779c0.017-0.095,0.064-0.184,0.123-0.269
	c-0.8-0.645-1.597-1.306-2.39-1.987c-3.187,2.305-6.034,3.714-10.451,3.135c-4.74-0.621-9.036-2.157-12.635-5.375
	c-6.777-6.062-7.843-16.657-6.773-25.15c1.281-10.166,4.712-20.519,13.453-26.615c5.31-3.704,11.109-6.361,14.728-11.763
	l1.294-2.387l0.491-0.832c2.147-4.391,3.929-8.939,6.996-12.777c-0.234-0.077-0.417-0.214-0.501-0.432
	c-1.104-2.884-0.689-6.202-0.671-9.223c0-0.096,0.033-0.186,0.079-0.272c-0.298-0.029-0.558-0.128-0.712-0.329
	c-3.05-3.969-8.553-6.408-12.245-9.913c-3.937-3.737-7.086-8.255-9.551-13.089c-5.142-10.085-7.052-20.838-5.907-32.079
	c0.112-1.104,2.926-1.6,2.912-0.372c0.238-0.025,0.445-0.008,0.581,0.078c11.178,7.001,18.901,17.282,23.302,29.042
	c-0.409-4.588-0.44-9.158,0.583-13.649c2.132-9.363,7.212-17.198,13.867-24.008c0.285-0.292,0.76-0.443,1.235-0.474
	c0.766-0.264,1.651-0.345,1.752,0.036c0.014,0.046,0.017,0.094,0.007,0.143c0.001,0.056-0.015,0.11-0.039,0.163
	c-1.71,15.374,0.957,32.121-4.478,46.521c4.825-4.507,10.707-7.887,17.253-9.707c10.413-2.896,23.212-2.953,28.263,8.356
	c0.027,0.061,0.04,0.12,0.053,0.179c0.135,0.074,0.237,0.177,0.281,0.321c0.831,2.738,1.674,5.482,2.667,8.167
	c0.144,0.387-0.282,0.761-0.849,0.992c2.407,10.249,10.563,23.875,6.046,34.439c0.082,0.036,0.131,0.086,0.136,0.153
	c0.712,9.967,12.539,14.171,15.516,23.068c1.598,4.773,3.947,13.904-1.702,16.722c1.541,2.715,2.488,5.7,2.507,8.604
	c0.117-0.123,0.234-0.248,0.352-0.369c7.715-7.92,19.458-17.667,31.211-18.05c0.224-0.125,0.494-0.205,0.8-0.213
	c14.143-0.382,26.256-13.398,40.487-11.353c11.899,1.71,23.584,9.539,30.708,19.096c0.044,0.06,0.073,0.118,0.1,0.177
	c1.574,0.357,3.143,0.916,4.699,1.722c0.306,0.159,0.409,0.353,0.383,0.553c1.759,0.67,3.533,1.14,5.417,0.907
	c0.379-0.399,1.011-0.709,1.591-0.634c0.718,0.094,1.398,0.248,2.04,0.452c2.857-2.613,5.562-5.022,8.917-6.916
	c-0.854-2.594,1.38-4.77,3.853-5.359c1.185-0.283,2.758-0.332,3.706,0.585c0.729,0.706,0.929,1.667,0.912,2.637
	c1.062-0.368,2.246-0.45,3.12,0.238c1.194,0.938,1.163,2.761,0.409,3.977c-0.796,1.283-1.962,2.09-3.436,2.411
	c-1.845,0.401-3.288,0.58-4.945,1.644c-0.067,0.043-0.144,0.079-0.225,0.112c-2.333,1.766-4.88,3.277-6.86,5.453
	c-0.056,0.061-0.127,0.106-0.19,0.16c0.431,1.417,0.445,3.06-0.075,4.884c-1.979,6.943-6.574,12.97-13.276,15.779
	c-1.712,0.718-3.52,1.262-5.37,1.701c-0.254,5.084-4.617,8.217-8.998,10.083c3.648,0,7.297,0,10.945,0
	c0.396-0.336,0.988-0.586,1.495-0.52c2.248,0.298,3.919,1.828,4.018,4.168c0.062,1.456-0.556,2.617-1.538,3.448
	c0.296,0.496-0.996,1.533-1.895,1.533c-16.598,0-33.196,0-49.794,0c-0.019,0.013-0.03,0.025-0.05,0.038
	c-3.108,2.051-6.375,3.244-9.914,4.33c-5.065,1.555-8.468,4.026-12.107,7.789c-5.068,5.239-10.029,9.798-16.842,12.65
	c-4.7,1.968-11.277,2.624-15.426-0.959c-3.46-2.987-5.442-7.106-8.262-10.58c0.336,12.278-0.26,24.534,3.388,36.447
	c0.057,0.186,0.031,0.36-0.043,0.521c1.358,6.283,2.351,12.501,2.398,19.06c0.002,0.237-0.003,0.475-0.002,0.712
	c7.529,0,15.059,0,22.587,0c-7.467-2.254-9.007-13.799-8.124-22.162c0.665-6.292,4.871-26.251,15.322-21.085
	c3.15-3.814,7.517-5.454,13.068-3.135c2.315-2.769,5.382-4.508,9.32-3.925c0.729-1.947,2.926-3.223,5.056-3.975
	c-0.035-0.299-0.038-0.595,0.032-0.872c1.217-4.844,6.831-8.479,11.509-9.237c2.023-0.328,0.782,1.102-0.476,1.306
	c-3.038,0.493-6.728,3.485-7.823,6.419c-0.219,0.587-0.355,1.129-0.32,1.663c2.008-0.188,6.728-0.121,4.355,2.438
	c-1.298,1.399-3.229,2.241-5.08,1.395c-0.728-0.333-1.416-1.077-1.832-1.918c-1.183,0.553-2.242,1.364-2.623,2.53
	c4.281-0.494,7.428,1.421,9.7,4.582c6.262-2.997,11.006-1.225,14.258,3.011c0.115-0.198,0.317-0.395,0.63-0.574
	c11.177-6.37,14.374,15.755,14.56,22.055c0.231,7.839-1.829,18.705-8.748,21.483c39.216,0,78.431,0,117.646,0
	c0.256-7.42,0.683-14.911,2.085-22.109c-1.519,1.52-4.551,3.685-5.465,5.721c-0.117,1.166-2.583,1.719-2.918,0.455
	c-1.021-3.85-0.695-8.371-0.175-12.702c-0.895,0.759-1.959,1.357-3.234,1.729c-6.461,1.88-13.562-1.629-18.754-5.254
	c-13.569-9.472-15.321-29.518-22.302-43.346c-4.533,0-9.066,0-13.599,0c-0.697,0-0.905-0.229-0.838-0.521
	c-0.055-0.075-0.048-0.174,0.059-0.309c1.807-2.263,4.582-3.817,7.678-4.658c-1.812-0.589-3.114-2.161-4.714-3.227
	c-0.191-0.127-0.127-0.287,0.027-0.438c-2.836-0.816-5.442-2.34-4.174-5.057c0.087-0.187,0.28-0.347,0.522-0.479
	c-0.201-0.189-0.396-0.386-0.555-0.605c-1.396-1.92,0.487-3.48,2.271-4.437c-1.431-1.497-0.242-3.117,1.394-4.272
	c-0.621-0.435-0.899-0.942-0.504-1.515c1.471-3.343,5.959-4.303,9.41-4.167c0-3.535,0-7.068,0-10.603
	c0-0.138,0.039-0.265,0.098-0.382c-0.556-0.007-1.123-0.035-1.713-0.105c-13.328-1.583-12.845-20.623-11.376-30.483
	c0.003-0.02,0.013-0.038,0.017-0.057c-0.026-0.314,0.194-0.653,0.809-0.91c4.495-1.878,9.738-2.032,14.542-1.764
	c3.556,0.198,8.851,0.235,11.712,2.769c0.003,0.003,0.005,0.006,0.008,0.009c0.154,0.099,0.271,0.235,0.32,0.425
	c2.541,9.912,0.242,27.663-11.569,29.885c0.053,0.114,0.088,0.241,0.088,0.393c0,2.168,0,4.337,0,6.505
	c1.822-1.624,4.614-1.869,6.905-1.112c3.404,1.124,9.204,4.317,9.104,8.576c-0.092,3.926-2.493,7.498-3.301,11.415
	c0.125,0.083,0.221,0.192,0.273,0.338c3.136,8.781,9.004,14.396,14.368,21.677c1.194,1.621,2.291,3.328,3.375,5.049
	c1.481-8.231,4.91-16.115,4.854-24.57c-1.111-0.066-2.236-0.268-2.496-0.88c-0.877-2.071,0.408-5.1,0.964-7.111
	c1.105-3.998,1.372-8.115,2.206-12.17c2.544-12.374,8.987-26.765,22.784-27.919c-3.125-2.453-5.447-6.23-6.204-10.8
	c-0.021-0.127-0.007-0.247,0.022-0.362c-0.037-0.03-0.073-0.054-0.109-0.085c-5.041-4.232-7.609-11.278-9.009-18.313
	c-0.463,0.073-0.884,0.037-1.06-0.18c-4.406-5.444-12.191-13.042-14.418-20.922c-0.137-0.003-0.257-0.027-0.353-0.076
	c-6.329-3.245-17.973-6.206-16.271-15.537c0.319-1.75,0.83-3.274,1.508-4.601c0.396-0.774,0.847-1.485,1.359-2.123
	c2.347-2.917,5.891-4.426,10.425-4.78c8.788-0.687,17.755,0.659,26.299,2.669c0.348,0.082,0.699,0.168,1.048,0.251
	c7.249-7.708,17.901-10.214,27.927-6.728c5.496,1.912,10.807,5.538,14.194,10.278c3.392,4.746,1.67,11.529,1.151,16.823
	c-0.005,0.055-0.022,0.107-0.042,0.159c1.719,1.172,3.424,2.349,5.116,3.518c4.651,3.215,9.222,6.551,13.898,9.728
	c0.186,0.126,0.373,0.241,0.561,0.356c0.824,0.509,1.668,0.927,2.526,1.283c3.334,1.381,6.875,1.873,10.25,3.526
	c3.516,1.722,6.37,6.121,3.364,9.729c-2.879,3.455-7.553,5.239-11.81,6.292c-4.72,1.168-9.709,1.844-14.469,0.412
	c-5.724-1.723-10.145-5.292-14.207-9.394c1.305,7.039,7.368,13.259,13.008,17.416c0.068-0.01,0.134-0.016,0.196-0.015
	c6.34,0.048,12.66,0.618,19,0.667c0.766,0.006,0.912,0.25,0.749,0.543c10.747,0.533,19.04,6.157,23.481,16.188
	c2.667,6.022,4.692,12.05,5.51,18.601c0.723,5.796,1.289,11.551,3.803,16.899c0.099,0.209,0.029,0.415-0.134,0.599
	c-0.113,0.198-0.33,0.396-0.692,0.573c-2.183,1.067-4.378,1.842-6.585,2.412c1.597,19.171,9.201,38.695,3.795,57.882
	c-3.847,13.653-13.122,24.688-19.331,37.273c0.112,0.116,0.172,0.268,0.144,0.471c-1.367,9.692,3.895,17.595,4.632,26.988
	c0.335,4.267,0.68,8.451,1.107,12.607c0.679,6.604,1.572,13.138,2.998,19.816c0.258,1.208,0.488,2.421,0.736,3.632
	c2.513,12.224,4.59,24.517,6.516,36.849c2.201,14.097,4.331,28.209,6.854,42.253c1.627,9.057,2.696,19.281,6.498,27.784
	C539.936,498.82,544.908,509.042,545.114,515.883z M277.493,270.724c0.02,0.032,0.033,0.064,0.054,0.097
	c0.115,0.174,2.004,2.258,1.573,0.604C278.96,270.813,278.277,270.667,277.493,270.724z M133.608,139.166
	c-0.714-19.678-9.052-38.342-25.491-49.64c-0.72,11.188,1.638,22.365,7.605,31.997c2.825,4.56,5.929,8.523,10.073,11.956
	C128.206,135.476,131.189,137.078,133.608,139.166z M213.925,319.497c-0.464-6.25-1.78-12.147-3.215-18.213
	c-0.003-0.015,0-0.029-0.003-0.044c-2.734-11.697-1.994-23.67-2.474-35.658c-2.796,1.098-5.427,2.437-8.066,3.949
	c-1.862,1.067-3.728,2.217-5.66,3.44c-0.658,0.417-1.318,0.831-1.98,1.244c-5.496,3.43-11.158,6.708-17.146,9.176
	c-6.63,2.732-15.88,5.777-23.693,4.438c-0.285-0.049-0.568-0.104-0.849-0.164c-2.26-0.489-4.384-1.368-6.268-2.76
	c-1.556,7.126-2.684,14.505-5.6,21.215c-3.479,8.005-4.239,15.803-4.866,24.403c-0.644,8.84-1.361,17.603-0.805,26.47
	c0.44,7.015-0.754,13.693-2.32,20.472c-0.004,0.018-0.008,0.037-0.012,0.055c0.064-0.077,0.131-0.151,0.195-0.227
	c2.943-3.508,6.27-6.59,10.463-8.622c0.344-0.167,1.896-0.539,2.007,0.155c0.971,6.04,1.509,12.171,3.497,17.991
	c0.001,0.003,0.002,0.006,0.003,0.009c0.112,0.329-0.208,0.649-0.671,0.876c0.092,0.029,0.185,0.057,0.277,0.085
	c0.183-0.307,0.376-0.608,0.564-0.913c2.953-4.782,6.519-9.194,11.072-12.542c0.297-0.219,2.614-1.237,2.758-0.507
	c1.065,5.389,2.979,10.736,6.337,15.132c3-4.391,5.417-9.171,8.874-13.242c0.488-0.575,2.299-1.286,2.789-0.39
	c2.365,4.323,4.475,8.778,6.758,13.144c0.014,0.027,0.028,0.055,0.042,0.083c0.108-0.17,0.214-0.343,0.321-0.515
	c2.79-4.455,5.37-9.087,9.469-12.485c0.615-0.509,1.725-0.595,2.288,0.023c2.272,2.497,3.498,5.574,4.766,8.64
	c2.018-5.292,6.229-9.872,9.618-14.19c0.021-0.027,0.049-0.049,0.072-0.074c0.434-7.435,0.854-14.871,1.148-22.313
	C213.983,338.332,214.616,328.798,213.925,319.497z M187.801,390.548c3.345-0.266,6.664-0.725,10.018-1.481
	c0.769-0.173,2.05-0.427,3.533-0.781c-0.045-0.056-0.087-0.115-0.119-0.184c-1.608-3.375-2.672-7.019-4.883-10.03
	c-3.523,3.458-5.863,7.997-8.527,12.15C187.819,390.331,187.808,390.439,187.801,390.548z M131.849,379.719
	c3.592,3.229,7.72,5.527,12.16,7.159c-1.676-5.228-2.27-10.688-3.095-16.099c-3.55,2.219-6.362,5.472-8.89,8.781
	C131.981,379.616,131.919,379.668,131.849,379.719z M269.877,254.61c-7.857,0-15.715,0-23.572,0c-0.122,0-0.229-0.007-0.322-0.02
	c-6.43,7.685-20.748,6.989-29.512,8.616c-1.646,0.306-3.188,0.708-4.688,1.159c0.052,0.032,0.103,0.064,0.146,0.105
	c3.397,3.19,5.077,7.694,8.333,10.981c6.172,6.23,15.237,2.807,21.307-2.004c4.906-3.888,8.587-9.335,13.786-12.847
	C259.781,257.612,265.17,256.968,269.877,254.61z M225.595,247.448c-1.951,0,0.207-1.468,1.174-1.468c0.763,0,1.526,0,2.289,0
	c-0.585-0.315-1.154-0.663-1.703-1.052c-0.43,0.429-1.173,0.662-1.733,0.619c-1.386-0.107-2.892,0.306-4.023,1.123
	c-1.329,0.96-0.928,2.133,0.16,3.049c0.379-0.167,0.762-0.327,1.144-0.48c0.938-0.377,2.003-0.822,3.03-0.493
	c2.463,0.788,4.698,1.848,7.099,2.791c4.273,1.678,9.188,1.341,13.712,1.345c0.074,0,0.132,0.007,0.195,0.012
	c0.157-0.047,0.312-0.075,0.456-0.075c24.975,0,49.951,0,74.927,0c0.222-0.128,0.461-0.22,0.637-0.276
	c2.152-0.681,1.263-4.343-0.527-5.108c-0.059,0.008-0.116,0.014-0.168,0.014C290.04,247.448,257.817,247.448,225.595,247.448z
	 M219.603,245.926c1.767-1.276,4.152-2.053,6.378-2.065c-2.381-1.977-4.548-4.422-7.041-6.401c-2.546-0.573-4.966-1.417-6.744-2.873
	c0.001,0.007,0.002,0.014,0.003,0.021c0.981,1.487,2.148,2.758,3.766,3.602c0.661,0.345,0.279,1.179-0.154,1.504
	c-0.612,0.461-1.411,0.522-2.079,0.173c-0.339-0.177-0.657-0.378-0.967-0.591c0.343,5.098-0.088,10.273-0.793,15.294
	c2.758-0.591,5.036-1.697,7.467-3.509c-0.101-0.031-0.195-0.07-0.269-0.129C217.14,249.34,217.656,247.332,219.603,245.926z
	 M334.989,209.44c1.042,0.607,1.897,1.396,2.519,2.344c1.846-1.602,3.915-2.923,5.846-4.432c0.084-0.121,0.226-0.253,0.455-0.4
	c0.046-0.03,0.092-0.054,0.139-0.083c0.14-0.114,0.283-0.224,0.42-0.341c0.153-0.13,0.432-0.236,0.751-0.31
	c1.647-0.81,3.313-1.205,5.208-1.537c0.675-0.118,1.152-1.2,1.233-1.791c0.069-0.502,0.086-1.215-0.291-1.627
	c-0.074-0.104-0.168-0.185-0.271-0.253c-0.061,0.036-0.142,0.079-0.25,0.131c-0.238,0.16-0.583,0.251-0.935,0.283
	c-0.869,0.495-2.504,0.604-2.371-0.178c0.16-0.939,0.295-2.279-0.413-3.058c-0.203-0.224-0.494-0.456-0.74-0.499
	c-0.141-0.025-0.089-0.037-0.279-0.026c0.015,0,0.008,0.004-0.022,0.015c0,0-0.001,0.001-0.002,0.001
	c-0.015,0.005-0.031,0.011-0.058,0.02c0.023-0.008,0.034-0.01,0.05-0.015c0,0,0,0,0.001,0c0.001,0,0.002-0.001,0.002-0.001
	c0,0-0.001,0.001-0.001,0.001c0.229-0.067-0.191,0.109-0.006,0.003c-0.079,0.041-0.155,0.085-0.23,0.131
	c0.04-0.025-0.244,0.194-0.303,0.25c-0.219,0.21-0.424,0.491-0.535,0.776c-0.334,0.853-0.234,1.655,0.141,2.48
	c0.118,0.259-0.11,0.531-0.481,0.749c-0.108,0.082-0.232,0.163-0.392,0.245c-3.534,1.803-6.206,4.411-9.101,7.06
	C335.05,209.401,335.018,209.42,334.989,209.44z M292.11,217.123c-3.068,2.398-8.475,5.473-9.857,9.121
	c-2.528,6.671,4.557,8.486,9.458,9.038c8.4,0.946,17.575,0.706,25.882-1.004c6.95-1.431,12.2-4.107,15.68-10.668
	c2.629-4.956,4.374-12.484-3.275-13.48c-0.264-0.034-0.457-0.101-0.599-0.186c-2.733,0.542-5.176,0.476-7.763-0.942
	c-0.088-0.02-0.172-0.046-0.247-0.084C311.184,203.629,300.08,210.893,292.11,217.123z M214.104,232.508
	c4.432,3.937,10.83,3.684,16.296,5.073c1.653,0.42-0.826,1.839-1.768,1.6c-1.37-0.348-3.056-0.592-4.854-0.861
	c3.254,3.145,6.36,6.94,10.776,7.66c24.258,0,48.517,0,72.774,0c-0.04-0.254,0.178-0.542,0.827-0.785
	c4.101-1.535,8.151-4.044,8.535-8.702c-3.523,0.606-7.133,0.878-10.564,1.043c-5.93,0.285-12.088,0.512-17.94-0.661
	c-5.085-1.019-10.216-3.167-9.281-9.292c0.755-4.943,7.625-8.83,11.315-11.666c7.002-5.381,15.811-10.982,24.732-10.811
	c-7.405-9.015-21.544-19.189-33.344-16.477c-11.907,2.737-21.66,10.788-34.225,11.127c-0.403,0.011-0.694-0.07-0.895-0.203
	c-10.403,0.042-21.828,9.713-28.519,16.882C214.457,220.198,208.706,227.714,214.104,232.508z M161.368,250.683
	c1.292,4.894,1.942,10.1,4.051,14.713c14.42-4.243,28.677-8.729,43.702-10.368c0.521-3.729,0.872-7.553,0.867-11.365
	c-0.19-0.003-0.367-0.037-0.505-0.125c-1.492-0.957-2.657-2.529-3.497-4.15c-0.836,0.67-1.7,1.303-2.589,1.903
	c0.133,0.084,0.223,0.203,0.233,0.368c0.049,0.753,0.626,1.453,1.083,2.012c0.475,0.582,0.994,1.211,1.614,1.645
	c1.204,0.842-1.457,2.045-2.29,1.463c-0.82-0.574-1.53-1.311-2.135-2.105c-0.385-0.506-0.864-1.13-1.065-1.783
	c-1.052,0.607-2.126,1.18-3.229,1.707c0.007,0.021,0.019,0.039,0.023,0.062c0.373,1.966,1.61,3.407,3.362,4.322
	c0.621,0.324,0.183,0.951-0.231,1.216c-0.556,0.356-1.439,0.572-2.058,0.249c-1.884-0.983-3.345-2.556-3.87-4.62
	c-0.868,0.354-1.747,0.687-2.635,0.999c0.07,0.123,0.115,0.267,0.117,0.44c0.026,2.098,0.534,4.031,2.32,5.29
	c1.343,0.947-1.211,2.376-2.239,1.652c-2.227-1.569-2.931-3.864-3.002-6.468c-1.818,0.545-3.661,1.011-5.514,1.409
	c0.005,0.046,0.011,0.092,0.004,0.145c-0.261,2.085-0.031,4.384,1.641,5.843c0.834,0.729-1.882,1.857-2.686,1.156
	c-1.87-1.633-2.145-4.243-1.867-6.575c-2.593,0.458-5.182,0.787-7.729,1.016c-0.142,2.086,0.107,4.102,1.075,6.017
	c0.678,1.342-2.09,2.384-2.656,1.264c-1.154-2.283-1.52-4.591-1.345-7.082C167.221,251.086,164.24,251.004,161.368,250.683z
	 M209.878,240.256c-0.086-1.351-0.223-2.695-0.428-4.029c-0.376,0.391-0.758,0.774-1.15,1.146
	C208.708,238.35,209.231,239.353,209.878,240.256z M204.295,231.545c-1.35-0.74-2.719-1.442-4.104-2.115
	c-1.983,5.147-3.806,10.355-5.819,15.492c0.346-0.15,0.689-0.304,1.031-0.462c0.117-0.063,0.242-0.121,0.373-0.167
	c5.025-2.381,9.508-5.668,12.997-10.077C207.779,233.091,205.405,232.153,204.295,231.545z M191.075,246.086
	c-3.17-2.941-5.187-6.843-8.24-9.857c-2.955,4.394-5.156,9.257-8.488,13.401c5.297-0.446,10.693-1.403,15.781-3.088
	c0.176-0.083,0.368-0.143,0.566-0.178c0.17-0.059,0.335-0.128,0.505-0.188C191.158,246.148,191.114,246.122,191.075,246.086z
	 M148.23,245.595c3.921,1.826,8.046,3.163,12.41,3.842c0.078,0.006,0.148,0.017,0.209,0.034c2.087,0.314,4.224,0.494,6.425,0.483
	c0.869-0.004,1.75-0.025,2.634-0.054c-4.519-3.745-5.967-8.946-8.789-13.8C157.016,239.563,153.126,243.304,148.23,245.595z
	 M198.327,199.779c-0.93-0.248-1.868-0.414-2.802-0.483c-2.213-0.162-7.169,0.246-11.115-0.349c-0.758,2.818-1.735,6.033-4.05,7.461
	c-2.599,1.603-5.437,1.911-8.45,1.969c-6.642,0.128-15.067-5.59-16.949-12.28c-4.283,4.287-9.986,5.265-15.652,8.29
	c-1.016,0.542-1.921,1.188-2.761,1.891l-3.096,3.391c-4.215,6.125-4.755,14.887-3.577,22.072c4.097-0.929,7.486-4.377,11.219-6.184
	c0.464-0.225,1.845-0.489,2.038,0.268c1.504,5.917,3.257,11.768,4.783,17.679c4.797-2.527,8.604-6.531,12.816-9.92
	c0.519-0.418,1.835-0.688,2.281,0c3.204,4.946,4.482,10.835,9.179,14.711c3.548-4.552,5.823-9.926,9.266-14.561
	c0.472-0.635,1.686-0.923,2.333-0.395c0.186,0.151,0.353,0.318,0.53,0.476c2.39,2.122,4.128,4.773,6.07,7.261
	c0.587,0.752,1.191,1.492,1.844,2.192c1.942-5.091,3.742-10.236,5.747-15.303c0.238-0.602,0.942-0.957,1.634-1.02
	c0.344-0.031,0.686,0.004,0.965,0.127c0.497,0.22,0.99,0.451,1.482,0.683c2.071,0.976,4.102,2.051,6.067,3.216
	c0.616,0.365,1.39,0.748,2.101,1.202c-0.14-0.272-0.285-0.542-0.394-0.841c-1.462-4.017-0.125-7.755,2.124-11.022
	c-0.041-0.104-0.049-0.229-0.009-0.377c1.597-5.846-1.21-11.796-5.715-15.804C203.925,202.076,201.167,200.534,198.327,199.779z
	 M189.931,134.272c-9.235,2.419-18.26,5.395-27.176,8.821c-0.448,0.172-0.899,0.336-1.349,0.505
	c0.088,8.709,1.011,17.4,0.822,26.116c-0.166,7.665-0.64,16.436-4.752,23.179c-0.049,0.081-0.103,0.15-0.153,0.229
	c0.091,0.048,0.149,0.115,0.155,0.203c0.455,6.118,6.72,11.236,12.265,12.996c0.682,0.216,1.442,0.409,2.231,0.549
	c1.733,0.308,3.61,0.343,5.146-0.268c1.083-0.431,1.999-1.178,2.567-2.386c0.893-1.895,1.501-3.902,2.112-5.904
	c-0.687-0.248-1.281-0.561-1.761-0.948c-0.293-0.1-0.531-0.289-0.64-0.595c-0.014-0.041-0.026-0.084-0.04-0.125
	c-0.056-0.081-0.13-0.151-0.178-0.236c-0.111-0.197-0.125-0.388-0.08-0.565c-1.581-4.887-2.263-10.559-0.86-15.5
	c1.33-4.683,6.151-5.919,10.297-6.967c13.747-3.477,7.654-20.265,3.544-32.242c-0.129,0.175-0.343,0.34-0.477,0.412
	c-0.584,0.315-1.385,0.52-2.039,0.321c-2.08-0.631-4.153-0.564-5.498,1.33c-0.464,0.653-3.33,1.022-2.66,0.079
	c2.276-3.205,6.978-3.735,10.492-2.673C191.092,138.24,190.38,136.085,189.931,134.272z M144.079,139.462l-0.442,0.185
	c-1.998,0.827-3.984,1.683-5.957,2.578c0,0-0.002,0-0.002,0.001l-1.068,0.476c0.015,0.057,0.026,0.115,0.026,0.181
	c-0.016,2.622-0.316,5.417,0.408,7.974c7.176-3.137,14.632-5.619,21.999-8.29c0.229-0.136,0.504-0.234,0.787-0.284
	c1.143-0.417,2.283-0.84,3.419-1.272c8.812-3.349,17.772-6.221,26.898-8.58c0.088-0.074,0.184-0.142,0.289-0.201
	c-0.81-2.268-1.536-4.567-2.236-6.87C173.261,129.333,158.375,133.583,144.079,139.462z M137.259,134.808
	c0.174-0.232,0.338-0.467,0.505-0.701c0.543-0.902,1.118-1.782,1.725-2.638c8.549-14.515,5.682-32.609,6.921-49.131
	c-5.729,6.533-10.363,14.347-11.198,23.125C134.274,115.314,136.819,124.995,137.259,134.808z M144.92,243.917
	c-1.401-5.392-2.972-10.737-4.373-16.128c-3.458,1.991-6.492,4.525-10.402,5.537C134.77,237.349,139.663,241.037,144.92,243.917z
	 M139.06,243.043c0.007-0.04,0.025-0.079,0.047-0.118c-1.365-0.822-2.709-1.714-4.044-2.645c0.172,3.342,0.561,6.628,1.086,9.894
	C137.416,247.932,138.631,245.608,139.06,243.043z M142.75,278.145c7.88,15.543,28.468,6.89,39.908,0.519
	c9.134-5.087,17.384-12.185,27.581-14.992c0.3-0.083,0.597-0.17,0.9-0.246c0.054-0.013,0.107-0.031,0.162-0.044
	c5.396-1.306,10.873-1.997,16.357-2.806c5.444-0.804,12.293-1.372,15.893-6.021c-2.754,0.016-5.55,0.021-8.254-0.378
	c-3.091-0.458-5.356-1.914-8.243-2.94c-4.058-1.442-5.502,0.953-8.97,2.918c-2.229,1.263-4.73,2.011-7.277,2.278
	c-17.416,1.831-33.667,7.234-50.427,12.019c-1.738,0.496-2.124-0.982-0.396-1.476c0.855-0.244,1.71-0.492,2.564-0.74
	c-2.28-4.951-2.852-10.596-4.35-15.801c-0.019-0.064,0.004-0.131,0.047-0.197c-2.089-0.363-4.124-0.851-6.112-1.454
	c-0.458,1.545-0.808,3.125-0.838,4.742c-0.018,0.93-2.917,1.554-2.895,0.374c0.037-1.977,0.543-3.901,1.152-5.77
	c0.019-0.057,0.047-0.111,0.083-0.165c-2.791-1-5.496-2.227-8.132-3.667c-0.592,1.935-1.56,3.745-2.557,5.505
	c-0.298,0.526-1.148,0.73-1.69,0.822c-0.09,0.016-0.732,0.078-1.042-0.041c0.674,4.106,1.541,8.187,2.415,12.323
	C139.703,267.982,140.377,273.467,142.75,278.145z M66.025,392.138c-7.42-0.35,0.762-12.576,2.946-15.294
	c2.203-2.74,5.384-5.392,8.745-6.205c-0.052-0.042-0.107-0.078-0.159-0.121c-0.14-0.114-0.225-0.232-0.278-0.351
	c-1.157-1.275-6.708-7.7-8.942-6.013c-1.726,1.303-2.643,3.496-3.397,5.457c-1.296,3.369-2.713,5.99-4.675,9.006
	c-2.914,4.479-7.152,10.453-7.206,16.028c-0.01,1-0.051,2.315,0.572,3.181c2.096,2.909,5.288,0.642,7.334-1.09
	C62.707,395.261,64.348,393.683,66.025,392.138z M157.637,391.853c-8.88-0.954-17.572-3.119-24.752-8.036
	c-0.579,1.605-1.534,3.177-2.329,4.518c-0.105,0.178-0.288,0.325-0.509,0.443c0.515,0.727,1.011,1.485,1.467,2.314
	c0.702,1.28-2.079,2.307-2.662,1.243c-9.034-16.46-31.064-11.275-46.202-18.611c-0.168-0.034-0.317-0.093-0.43-0.189
	c-0.018-0.016-0.036-0.027-0.054-0.042c-0.656-0.333-1.297-0.693-1.924-1.078c-4.21-1.293-8.409,3.939-10.563,7.268
	c-0.905,1.399-6.798,11.157-1.898,10.673c2.286-1.813,4.806-3.633,7.491-4.653c3.061-1.162,4.501-0.753,7.22,0.926
	c8.968,5.539,17.93,11.087,26.848,16.706c7.566,4.767,16.373,12.587,25.624,13.088C148.944,417.179,155.539,403.733,157.637,391.853
	z M165.272,390.645c-3.454-4.209-5.508-9.29-6.712-14.561c-3.921,3.478-7.027,7.76-9.63,12.319
	C154.193,389.753,159.751,390.368,165.272,390.645z M183.798,390.777c-2.267-4.216-4.33-8.538-6.561-12.773
	c-3.002,4.117-5.333,8.693-8.4,12.777c3.826,0.103,7.599,0.083,11.207,0.072C181.306,390.849,182.555,390.821,183.798,390.777z
	 M200.701,501.687c-7.041-2.259-11.757-4.966-16.04-10.555c-3.334,6.254-6.529,14.659,2.211,17.372
	c5.535,1.718,11.501,2.299,17.247,2.836c1.826,0.171,23.174,1.698,21.628-2.15c-1.339-3.33-6.266-5.601-9.191-7.197
	c-2.043-1.116-4.118-2.169-6.198-3.212C209.974,503.102,204.532,502.916,200.701,501.687z M209.613,387.103
	c-4.201,2.261-9.56,3.234-13.883,4.047c-2.736,0.514-5.42,0.854-8.107,1.079c-0.855,5.54-4.074,10.845-5.392,16.206
	c-2.031,8.264-3.752,17.911-2.101,26.391c3.4,17.453,7.966,35.605,6.044,53.506c3.105,4.542,6.569,8.503,12.031,10.186
	c2.774,0.854,10.41,4.585,9.049-1.315c-15.635-11.101-7.114-36.662-6.016-52.288c0.644-9.157,1.996-18.257,2.941-27.385
	c0.511-4.94,0.772-9.855,1.966-14.7C207.433,397.606,208.996,392.453,209.613,387.103z M212.13,374.198
	c-3.214,3.956-6.466,8.223-7.353,13.154c3.812-1.2,7.528-3.038,7.154-5.786C211.613,379.229,211.878,376.667,212.13,374.198z
	 M498.936,335.308C499.073,335.337,499.119,335.314,498.936,335.308L498.936,335.308z M419.1,302.327
	c3.2-3.25,6.431-6.469,9.661-9.69c1.27-1.266,2.542-2.53,3.803-3.805c0.466-0.471,1.488-1.885,1.438-1.341
	c0.322-3.545-0.148-7.282-0.332-10.824c-0.661-12.77-2.253-25.434-1.935-38.247c0.215-8.65,0.628-17.339,2.251-25.858
	c1.343-7.049,4.282-14.115,4.906-21.281c-1.874,0.306-3.73,0.199-5.493-0.263c-10.269,21.605-10.035,46.474-12.827,69.774
	c-0.847,7.066-1.739,14.129-2.526,21.202c0.001,0.021,0.008,0.04,0.008,0.062c-0.036,2.174-0.206,4.647-0.752,6.991
	c-0.484,4.854-1.717,10.846-1.192,16.035C417.161,304.067,418.313,303.125,419.1,302.327z M464.514,261.901
	c0.328-6.98,0.211-13.97,0.303-20.957c0.185-13.999,0.542-27.995,0.566-41.996c-4.04-1.527-5.833-6.105-7.983-9.775
	c-1.511,3.516-3.097,6.999-4.44,10.585c-0.001,0.004-0.003,0.009-0.005,0.013c-0.003,0.007-0.006,0.015-0.009,0.022
	c-0.133,0.357-0.836,0.611-1.513,0.722c-0.658,0.153-1.292,0.177-1.366-0.082c-0.5-1.771-0.991-3.63-1.55-5.479
	c-0.004,0.002-0.006,0.004-0.01,0.005c-3.026,1.409-5.524,3.622-8.016,5.801c-0.193,0.169-0.419,0.272-0.654,0.33
	c-1.178,4.344-2.544,8.672-3.243,13.044c-1.37,8.566-1.889,17.248-1.963,25.92c-0.107,12.529,1.413,24.945,2.021,37.445
	c0.123,2.524,1.373,7.756,0.16,10.121c-0.988,1.926-3.514,3.663-5.014,5.159c-1.933,1.928-3.866,3.856-5.795,5.788
	c2.018,2.061,3.744,3.689,7.281,3.118c1.846-0.298,3.693-0.592,5.556-0.767c3.764-0.352,7.532-0.579,11.314-0.571
	c7.892,0.015,15.772,0.49,23.662,0.589c-4.97-6.255-8.216-14.372-9.068-20.729C463.928,274.102,464.225,268.038,464.514,261.901z
	 M473.593,178.542c-2.258,6.419-2.543,13.363-5.29,19.639c0.002,0.025,0.01,0.047,0.01,0.074
	c-0.016,12.865-0.331,25.724-0.516,38.587c-0.17,11.84-1.035,23.876-0.699,35.699c0.287,10.092,3.382,20.611,10.458,28.11
	c0.317,0.336,0.657,0.684,1.009,1.035c3.089,3.081,7.437,6.532,11.831,6.935c0.03-0.061,0.055-0.122,0.084-0.183
	c1.768-3.688,2.71-7.467,3.242-11.771c0.989-8.003,1.531-16.774,4.73-24.348c-0.108-0.048-0.186-0.117-0.218-0.214
	c-4.028-12.16-4.464-25.063-6.444-37.632c-0.292-0.005-0.583-0.013-0.876-0.017c-0.054,0-0.094-0.008-0.143-0.011
	c-0.713,0.185-1.482,0.137-1.623-0.34c-2.791-9.46-1.024-18.855-1.175-28.522c-0.136-8.747-0.801-17.687,1.763-26.174
	c0.028-0.094,0.089-0.182,0.164-0.265C484.46,179.053,479.032,178.654,473.593,178.542z M447.877,192.971
	c-0.576-1.694-1.24-3.344-2.056-4.877c-1.286,1.023-2.614,1.798-3.956,2.344c-0.16,2.343-0.567,4.669-1.1,6.984
	c1.987-1.655,4.063-3.19,6.425-4.289C447.423,193.025,447.654,192.979,447.877,192.971z M515.309,234.038
	c-6.688,1.194-13.503,0.74-20.492,0.509c1.729,11.367,2.299,22.986,5.482,34.064c0.366-0.623,0.751-1.237,1.168-1.835
	c0.771-1.106,3.49-0.645,2.431,0.875c-6.211,8.906-6.016,20.946-7.571,31.288c-0.679,4.517-1.898,8.448-4.362,12.324
	c-2.72,4.28-4.793,8.141-5.42,13.267c1.53,2.593,3.537,4.858,6.19,6.464c1.579,0.956,3.323,1.773,5.156,2.101
	c0.009,0.001,0.019,0.002,0.028,0.004c6.028-14.272,17.405-26.289,21.206-41.416C524.012,272.235,516.871,253.38,515.309,234.038z
	 M490.881,206.326c-0.097,8.828-1.365,17.532,0.94,26.159c0.043-0.003,0.087-0.011,0.13-0.01
	c10.475,0.116,20.666,1.781,30.493-2.544c-4.203-9.527-3.347-20.504-7.146-30.292c-4.261-10.977-10.909-18.827-22.92-19.707
	C490.013,188.569,490.979,197.467,490.881,206.326z M464.808,173.354c-1.681,4.167-4.191,7.916-5.862,12.108
	c-0.074,0.187-0.156,0.37-0.231,0.556c0.058,0.037,0.109,0.081,0.148,0.133c2.382,3.211,3.859,8.216,7.263,10.583
	c2.152-5.94,2.555-12.356,4.746-18.296C468.861,177.007,466.762,175.294,464.808,173.354z M456.921,159.795
	c-0.546-0.679-1.061-1.377-1.564-2.083c0.235,4.113-0.147,8.284-0.932,12.188c-1.083,5.385-2.693,11.779-6.439,16.127
	c1.792,2.873,2.913,6.299,3.875,9.673c1.503-3.794,3.116-7.583,4.863-11.217c2.059-4.283,4.622-8.283,6.03-12.852
	c0.028-0.092,0.097-0.178,0.194-0.258C459.935,167.954,457.567,163.996,456.921,159.795z M462.026,120.835
	c-1.813-4.832-6.05-8.208-10.538-10.511c-9.684-4.97-20.097-4.289-27.718,3.791c5.634,1.402,11.331,3.084,16.542,5.618
	c7.581,3.441,14.773,7.908,21.715,12.567C462.547,128.526,463.334,124.323,462.026,120.835z M383.964,125.993
	c2.055,5.007,7.976,7.201,12.955,9.357c-0.428-3.34,0.288-6.696,2.829-9.929c1.006-1.279,2.188-2.375,3.479-3.317l0.191-0.284
	l0.722-0.344c3.059-1.96,6.675-3.031,10.333-3.175l1.58-0.246l0.927,0.29c2.611,0.203,5.174,0.881,7.498,2.062l3.541,0.503
	l5.744,2.08l7.7,3.107l6.815,3.425l5.018,2.811l10.166,6.044l-0.095,0.266c0.459,0.02,0.839,0.197,0.921,0.592
	c0.766,3.715,1.009,7.732-0.324,11.367c-0.799,2.178-1.964,4.141-3.044,6.16c4.003,4.347,8.497,8.795,14.175,10.504
	c5.832,1.755,11.999,1.11,17.543-1.381c2.221-0.998,5.5-2.682,5.949-5.42c0.474-2.892-1.222-5.643-3.928-6.729
	c-3.501-1.404-7.737-1.638-10.976-3.586c-17.605-10.593-32.963-25.063-52.674-31.979c-0.262-0.092-0.285-0.235-0.164-0.393
	c-2.76-1.038-5.624-1.938-8.536-2.707c-0.2,0.039-0.406,0.058-0.604,0.058h-0.001c-0.539-0.001-1.005-0.15-1.044-0.48
	c-5.741-1.411-11.616-2.31-17.206-2.736c-1.297-0.099-2.583-0.18-3.843-0.227c-3.238-0.121-7.209-0.435-10.283,0.903
	c-1.456,0.634-2.713,1.634-3.592,3.209C384.126,118.681,382.619,122.713,383.964,125.993z M424.814,176.615
	c1.433,1.13,3.06,1.967,4.914,2.41c4.1,0.979,7.354-0.513,11.152-1.632c1.236-0.364,2.229-0.568,3.485-0.275
	c1.719,0.401,2.535,2.931,3.004,5.291c0.22-0.396,0.431-0.798,0.623-1.212c3.897-8.414,5.822-19.182,3.679-28.598
	c-6.154-2.113-11.683-6.204-15.025-11.796c-7.104,5.82-15.242,0.506-21.17-4.67c-0.517,3.69-1.01,7.324-1.141,10.972
	c0.058,0.701,0.124,1.442,0.202,2.22c1.681-0.509,3.456-0.587,5.2-0.063c1.632,0.49-0.859,1.847-1.774,1.572
	c-1.151-0.345-2.206-0.392-3.263,0.021c0.958,8.415,3.277,19.887,9.645,25.365C424.553,176.294,424.722,176.422,424.814,176.615z
	 M434.308,189.117c4.232,1.009,7.886-0.52,10.581-3.316c-0.338-1.889-0.671-3.893-1.501-5.587c-0.933-1.904-6.424,0.604-7.903,0.844
	c-3.841,0.624-6.957,0.149-9.944-1.426C426.862,183.968,429.634,188.004,434.308,189.117z M407.044,234.838
	c4.411,0.267,8.671,1.057,12.939,2.188c1.557-16.084,3.783-32.154,10.81-46.742c0.031-0.065,0.072-0.125,0.117-0.183
	c-0.159-0.076-0.317-0.151-0.473-0.233c-0.211,0.07-0.42,0.111-0.603,0.103c-16.761-0.714-20.792,20.814-22.682,33.267
	c-0.363,2.394-1.058,4.629-1.616,6.979C404.974,232.59,403.928,234.649,407.044,234.838z M355.351,188.109
	c4.188-1.415,8.891-1.532,13.239-1.29c2.965,0.165,7.135,0.224,10.1,1.707c0.126-3.079-0.155-6.167-0.904-9.185
	c-2.575-2.018-7.139-2.056-10.212-2.162c-3.742-0.128-7.93-0.182-11.534,1.102C355.664,180.977,355.321,184.485,355.351,188.109z
	 M377.66,195.728c0.354-1.416,0.619-2.849,0.8-4.289c-0.149-0.041-0.286-0.106-0.398-0.206c-2.518-2.229-7.309-2.247-10.487-2.356
	c-3.959-0.136-8.425-0.203-12.162,1.327c0.324,6.303,1.969,12.549,6.733,15.118C369.5,209.288,375.972,202.476,377.66,195.728z
	 M359.342,223.786c0.2-0.191,4.282,1.375,5.083,1.524c0.447,0.083,1.843,0.392,3.168,0.531c0.142-0.02,0.285-0.038,0.417-0.044
	c0.363-0.018,0.958-0.014,1.624,0.036c0.327-0.071,0.566-0.195,0.668-0.392c2.077-4.029-8.921-6.397-10.671-2.071
	c-0.002,0.004-0.005,0.008-0.007,0.013C359.591,223.497,359.505,223.63,359.342,223.786z M365.484,230.616
	c0.316,0.028,0.65,0.041,0.988,0.042c0.523-0.266,1.187-0.373,1.619-0.164c0.834-0.193,1.603-0.575,2.143-1.273
	c0.911-1.176,0.005-1.639-1.13-1.813c-2.248,0.246-4.816-0.202-6.456-0.535c-0.46-0.093-2.153-0.421-3.631-0.947
	C355.694,228.627,363.327,230.421,365.484,230.616z M356.667,232.981c1.447,1.28,3.761,1.774,5.597,2.114
	c1.104,0.204,2.239,0.325,3.362,0.336c0.762,0.008,1.881-0.124,2.104-0.217c0.17-0.071,0.232-0.117,0.25-0.129
	c0.05-0.103,0.092-0.273,0.018-0.508c-0.306-0.97-1.218-1.757-1.974-2.392c-0.165,0.006-0.332,0.02-0.494,0.019
	c-2.536-0.024-5.479-0.436-7.838-1.618C356.511,231.134,355.444,231.899,356.667,232.981z M362.328,239.029
	c1.277,0.181,2.846,0.406,4.103-0.013c-0.167,0.055-1.488-1.344-1.905-1.599c-0.015-0.009-0.022-0.02-0.037-0.029
	c-1.168-0.045-2.328-0.206-3.387-0.391c-1.385-0.243-3.191-0.586-4.757-1.246C356.584,237.916,360.581,238.782,362.328,239.029z
	 M365.605,242.562c0.391,0.019,0.529,0.212,0.457,0.432c0.168-0.016,0.336-0.025,0.505-0.036v-2.434
	c-1.284,0.335-2.728,0.336-3.915,0.262c-0.126-0.008-0.269-0.019-0.419-0.032C363.244,241.641,364.304,242.5,365.605,242.562z
	 M375.863,247.315c-4.742-3.862-13.169-4.299-17.587,0C364.138,247.315,370.001,247.315,375.863,247.315z M417.746,260.043
	c0.827-6.984,1.396-14.104,2.067-21.232c-0.25,0.052-0.482,0.063-0.655,0.016c-3.767-1.043-7.638-1.941-11.54-2.247
	c-0.193,9.659-4.598,18.577-5.393,28.178c1.971,3.038,4.083,5.962,6.798,8.37c0.868,0.77-1.856,1.905-2.681,1.174
	c-6.141-5.446-9.042-13.463-14.5-19.5c-4.999-5.528-9.296-11.355-12.042-18.266c-0.599,0.032-1.105-0.144-1.065-0.634
	c0.252-3.082,1.203-5.785,2.375-8.618c0.922-2.227,1.905-4.812,0.097-6.917c-1.042-1.212-9.716-8.023-10.246-3.929
	c-0.364,2.813,2.686,4.3,4.877,5.084c1.181,0.423-1.452,1.69-2.312,1.383c-0.128-0.046-0.268-0.101-0.411-0.16
	c0.523,0.869,0.573,1.866-0.267,2.94c-0.19,0.244-0.417,0.448-0.659,0.635c1.245,0.455,1.985,1.272,0.863,2.719
	c-0.918,1.186-2.273,2.013-3.744,2.528c1.427,1.46,2.636,3.458,0.324,4.802c-0.458,0.266-0.952,0.454-1.46,0.609
	c0.582,0.501,1.03,1.094,0.923,1.71c0.222,0.012,0.369,0.055,0.369,0.137v3.667c0,0.162-0.137,0.306-0.344,0.431
	c4.152,0.22,8.118,1.688,10.612,4.456c0.254,0.076,0.355,0.216,0.343,0.387c0.093,0.192-0.063,0.405-0.352,0.597
	c-0.399,0.395-1.058,0.75-1.584,0.75c-1.877,0-3.754,0-5.632,0c5.793,11.911,7.792,26.113,16.074,36.714
	c3.977,5.09,11.218,10.224,17.907,10.599c4.673,0.262,6.819-2.837,7.812-6.61c0.022-0.203,0.046-0.409,0.066-0.608
	C415.352,279.469,416.596,269.762,417.746,260.043z M408.99,499.935c0.451-9.035,0.527-17.856,1.413-26.875
	c1.079-10.983,1.574-22.001,1.925-33.028c0.621-19.475,1.922-38.72,3.725-58.117c1.206-12.979,2.461-25.895,3.211-38.884
	c-3.446-0.013-6.893-0.02-10.339-0.03c0.004,0.041,0.014,0.077,0.014,0.12c-0.339,53.355-5.185,106.55-6.111,159.888
	c2.394-1.039,4.991-1.704,7.73-1.977c-0.428-0.202-0.859-0.396-1.282-0.614c-0.244-0.126-0.316-0.278-0.28-0.435
	C408.996,499.965,408.989,499.952,408.99,499.935z M412.448,328.016c-3.558,4.235-7.116,8.47-10.673,12.704
	c5.872,0.011,11.744,0.03,17.617,0.052c0.091-1.723,0.176-3.447,0.247-5.173c0.119-2.896,0.199-5.834,0.291-8.789
	c-2.156,0-4.312,0-6.468,0C413.124,327.211,412.786,327.613,412.448,328.016z M257.712,326.809
	c21.034,25.036,42.067,50.071,63.101,75.107c21.033-25.036,42.067-50.072,63.101-75.107
	C341.846,326.809,299.779,326.809,257.712,326.809z M264.631,324.619c-1.143-0.512-2.196-1.183-3.107-2.001
	c-1.301,0.862-2.541,1.526-3.717,2.001C260.082,324.619,262.356,324.619,264.631,324.619z M285.855,324.619
	c-1.742-0.42-3.628-1.273-5.663-2.653c-1.094,1.048-2.367,1.949-3.859,2.653C279.507,324.619,282.681,324.619,285.855,324.619z
	 M293.252,323.436c-0.803,0.532-1.667,0.932-2.59,1.183c1.354,0,2.709,0,4.064,0c-0.292-0.089-0.582-0.176-0.882-0.285
	C293.257,324.122,293.128,323.779,293.252,323.436z M296.844,282.991c6.576,10.477,5.75,32.047-2.269,39.413
	c0.327-0.093,0.662-0.112,0.946-0.009c11.626,4.205,13.083-12.004,12.613-19.823c-0.227-3.76-2.885-24.034-10.312-19.801
	C297.487,282.96,297.148,283.019,296.844,282.991z M282.466,279.876c4.277,7.173,4.922,19.077,4.244,25.248
	c-0.575,5.236-1.744,10.848-4.858,14.984c4.63,3.434,9.709,4.688,12.913-1.186c2.793-5.122,3.51-11.477,3.313-17.225
	c-0.255-7.432-3.537-27.604-15.333-21.929C282.653,279.813,282.56,279.847,282.466,279.876z M257.111,292.159
	c-1.186,8.279-0.936,18.587,4.033,25.73c2.504,3.6,6.326,6.29,10.932,5.675c8.681-1.159,11.062-10.828,11.693-18.236
	c0.609-7.143-0.446-31.435-12.322-29.062c-0.015,0.003-0.025,0-0.04,0.002c-0.487,0.43-1.265,0.726-1.861,0.529
	C261.275,274.064,257.951,286.293,257.111,292.159z M260.48,321.563c-7.454-7.902-8.086-21.626-5.868-31.637
	c0.729-3.292,2.031-7.039,4.014-10.052c-0.115-0.005-0.216-0.021-0.291-0.057C238.112,270.083,238.527,337.385,260.48,321.563z
	 M247.916,323.78c-0.125,0.08-0.278,0.158-0.48,0.231c-0.716,0.259-1.395,0.451-2.054,0.607c1.295,0,2.59,0,3.885,0
	C248.797,324.378,248.345,324.103,247.916,323.78z M246.263,322.717c0.116-0.042,0.235-0.068,0.354-0.088
	c-7.531-7.778-7.787-28.925-1.177-39.41c-0.155-0.012-0.293-0.047-0.403-0.11c-7.474-4.252-10.577,16.554-10.814,20.597
	C233.798,310.938,235.074,326.767,246.263,322.717z M235.936,341.032c-3.983-4.741-7.966-9.482-11.949-14.223
	c-2.336,0-4.673,0-7.009,0c-0.003,4.742-0.087,9.483-0.236,14.223C223.14,341.032,229.539,341.032,235.936,341.032z
	 M247.817,355.173c-3.542-4.216-7.083-8.431-10.625-12.646c-0.298,0.151-0.616,0.252-0.89,0.252c-1.396,0-2.793,0-4.189,0
	c0.007,0.015,0.019,0.029,0.019,0.047c0.063,56.564,6.059,112.966,6.165,169.526c1.121,0,2.242,0,3.364,0
	C241.832,459.901,247.738,407.629,247.817,355.173z M410.948,326.809c-8.169,0-16.338,0-24.507,0
	c-21.477,25.563-42.953,51.126-64.43,76.688c-0.049,0.059-0.128,0.115-0.221,0.168c-0.352,0.779-2.141,1.289-2.778,0.531
	c-21.672-25.795-43.344-51.592-65.017-77.387c-8.81,0-17.62,0-26.43,0c0.216,0.257,0.432,0.514,0.648,0.771
	c7.421,8.833,14.843,17.667,22.265,26.501c0.145,0.033,0.236,0.089,0.236,0.174c0,0.035-0.001,0.071-0.001,0.106
	c22.848,27.195,45.695,54.389,68.542,81.584c0.22-0.261,0.439-0.522,0.659-0.784C350.26,399.044,380.604,362.927,410.948,326.809z
	 M396.472,507.135c1.112-1.029,2.313-1.937,3.598-2.713c-0.126-0.158-0.206-0.358-0.201-0.615c0.9-53.543,5.784-106.941,6.124-160.5
	c0-0.112,0.026-0.215,0.062-0.314c-1.864-0.004-3.729-0.013-5.594-0.016c-0.201,0-0.37-0.029-0.521-0.072
	c-3.203,3.813-6.406,7.625-9.609,11.438C390.41,405.346,396.083,456.143,396.472,507.135z M445.353,514.32
	c-0.15-3.382-1.057-6.676-1.585-10.011c-9.986,1.461-20.588,1.566-30.096-1.957c-0.026,0.001-0.055,0.005-0.08,0.004
	c-8.998-0.364-15.993,3.857-19.658,11.964C411.074,514.32,428.214,514.32,445.353,514.32z M474.786,399.361
	c0.931,4.229,1.824,8.462,2.683,12.688c3.305,16.262,4.707,32.785,7.521,49.126c1.309,7.6,2.666,15.039,3.505,22.708
	c0.688,6.27,1.479,12.582,3.933,18.435c5.062,3.596,12.368,3.666,18.281,3.045c6.319-0.663,13.193-2.055,18.477-5.813
	c-4.032-9.125-5.121-20.161-6.816-29.857c-2.45-14.014-4.583-28.081-6.789-42.135s-4.821-27.978-7.67-41.917
	c-1.096-5.36-2.162-10.759-2.677-16.213c-0.49-5.185-0.046-10.607-1.134-15.706c-1.351-6.332-3.789-12.169-4.317-18.437
	c-2.6,0.647-6.215-0.908-8.292-2.074c-3.321-1.864-5.8-4.528-7.652-7.62c-0.12-0.102-0.206-0.234-0.241-0.401
	c-1.838-3.2-3.024-6.833-3.768-10.515c-0.268-1.326,2.636-2.072,2.897-0.776c0.432,2.136,1.018,4.317,1.814,6.413
	c0.896-2.962,2.274-5.661,4.05-8.454c0.271-0.426,0.513-0.852,0.758-1.277c-5.547-0.51-10.43-3.764-14.363-8.237
	c-0.123,0.029-0.239,0.047-0.339,0.047c-10.368-0.033-20.774-1.064-31.139-0.491c-7.145,0.396-12.861,2.966-18.352-0.757
	c-2.392,11.471-2.22,23.732-2.688,35.337c-0.607,15.067-2.119,30.009-3.534,45.022c-2.001,21.229-3.104,42.308-3.912,63.615
	c-0.374,9.84-0.838,19.695-1.944,29.484c-0.929,8.219-0.796,16.346-1.192,24.583c10.511,5.318,22.735,5.146,34.116,3.286
	c1.372-53.804,9.529-107.152,11.213-160.901c-0.545-3.337-0.949-6.687-1.15-10.04c-0.066-1.104,2.842-1.703,2.897-0.776
	c0.189,3.161,0.554,6.323,1.05,9.477c0.076,0.034,0.119,0.079,0.117,0.138c-0.005,0.153-0.013,0.306-0.018,0.459
	c1.48,9.117,4.032,18.159,6.634,26.9c1.427,4.795,2.743,9.638,3.985,14.505C472.184,387.915,473.526,393.633,474.786,399.361z
	 M542.19,516.16c-0.379-5.288-4.271-15.282-10.281-15.778c-0.02,0.017-0.034,0.034-0.056,0.051
	c-5.923,4.591-14.028,6.545-21.375,7.147c-5.488,0.45-11.876,0.525-17.123-1.755c-1.836,3.066-1.897,6.938-0.775,10.34
	c0.017-0.001,0.037-0.005,0.051-0.005C509.151,516.16,525.67,516.16,542.19,516.16z M323.074,303.886c14,0,28,0,42,0
	c0.596,0,0.823,0.154,0.824,0.368c0.039,0.02,0.065,0.043,0.063,0.072c-1.002,11.278-10.9,18.606-21.741,19.473
	c-12.227,0.978-22.106-6.106-23.156-18.696c-0.016-0.186,0.158-0.358,0.426-0.503C321.902,304.227,322.579,303.886,323.074,303.886z
	 M324.11,305.542c1.288,9.521,8.165,16.989,18.281,17.236c10.46,0.255,19.447-6.743,20.611-17.236
	C350.039,305.542,337.075,305.542,324.11,305.542z" fill="#2586d5"></path>
</svg>